<svg id="visual" viewBox="0 0 450 900" width="450" height="900" xmlns="http://www.w3.org/2000/svg" xmlns:xlink="http://www.w3.org/1999/xlink" version="1.1"><path d="M0 217L37.5 200.5C75 184 150 151 225 145C300 139 375 160 412.5 170.5L450 181L450 0L412.5 0C375 0 300 0 225 0C150 0 75 0 37.5 0L0 0Z" fill="#715df2"></path><path d="M0 316L37.5 316C75 316 150 316 225 328C300 340 375 364 412.5 376L450 388L450 179L412.5 168.5C375 158 300 137 225 143C150 149 75 182 37.5 198.5L0 215Z" fill="#a991f8"></path><path d="M0 496L37.5 523C75 550 150 604 225 614.5C300 625 375 592 412.5 575.5L450 559L450 386L412.5 374C375 362 300 338 225 326C150 314 75 314 37.5 314L0 314Z" fill="#d7c7fc"></path><path d="M0 901L37.5 901C75 901 150 901 225 901C300 901 375 901 412.5 901L450 901L450 557L412.5 573.5C375 590 300 623 225 612.5C150 602 75 548 37.5 521L0 494Z" fill="#ffffff"></path></svg>